<svg viewBox="0 0 163 67" xmlns="http://www.w3.org/2000/svg" data-name="example-chromas">
    <path style="fill:var(--hue-9-600)" d="M85.25 41.2l-7.46 2.113-8.29 2.348.09 20.539 8.28-2.338 7.46-2.113z"/>
    <path style="fill:var(--hue-9-500)" d="M69.7 45.85l.08 20.12a52.1 52.1 0 01-13.33-10.8 24.19 24.19 0 01-5.66-11.27l-.08-20.12A24.19 24.19 0 0056.36 35 52 52 0 0069.7 45.85z"/>
    <path style="fill:var(--hue-9-600)" d="M50.71 23.78l10-.33a21.83 21.83 0 005.12 10.23A47.28 47.28 0 0078 43.55l-8.27 2.3A52 52 0 0156.36 35a24.19 24.19 0 01-5.65-11.22z"/>
    <path style="fill:var(--hue-9-400)" d="M162.41 20.14l-3.41 1-1 .28-3 .83-4.14 1.14-7.45 2.07.08 20.12 7.46-2.06 4.05-1.13 4-1.11 3.49-1zm-3.41.11l-4 .14-6.54.21-9 .29a5.08 5.08 0 001.16 2.27 10.6 10.6 0 002.79 2.25L155 22.2l4-1.11 3.41-1-3.41.16z"/>
    <path style="fill:var(--hue-9-400)" d="M143.41 25.41l-8.28 2.3-8.28 2.29.08 20.13 8.28-2.3 8.28-2.3zm-2.79-2.25a5.08 5.08 0 01-1.16-2.27l-10 .32-10 .33a9.35 9.35 0 002.17 4.29A20.27 20.27 0 00126.8 30l8.28-2.29 8.28-2.3a10.6 10.6 0 01-2.74-2.25zM126.85 30l-8.28 2.3-8.28 2.29.09 20.13 8.27-2.3 8.28-2.29z"/>
    <path style="fill:var(--hue-9-400)" d="M121.68 25.83a9.35 9.35 0 01-2.17-4.29l-10 .32-10 .33a13.63 13.63 0 003.17 6.3 29.39 29.39 0 007.56 6.1l8.28-2.29 8.28-2.3a20.27 20.27 0 01-5.12-4.17z"/>
    <path class="fill-v5-c6-h9" d="M110.29 34.59l-8.27 2.3-8.29 2.29.08 20.13 8.29-2.3 8.28-2.29zm-7.56-6.1a13.63 13.63 0 01-3.17-6.3l-10 .32-10 .33a18 18 0 004.2 8.31 38.81 38.81 0 009.93 8l8.29-2.29 8.27-2.3a29.39 29.39 0 01-7.52-6.07z"/>
    <path class="fill-v5-c10-h9" d="M93.73 39.18l-7.46 2.07-8.29 2.3.09 20.12 8.28-2.29 7.46-2.07z"/>
    <path class="fill-v5-c10-h9" d="M83.8 31.15a18 18 0 01-4.2-8.31l-9 .29-10 .32a22.2 22.2 0 005.17 10.25A47.53 47.53 0 0078 43.55l8.29-2.3 7.46-2.07a38.81 38.81 0 01-9.95-8.03z"/><g>
    <path fill="#FFFFFF" d="M73.39 32.51v-.28h.22c.31 0 .53-.23.53-.53v-.25h.37v3.86h-.37V32.5h-.75v.01zm5.2.91c0 1.18-.6 1.96-1.51 1.96-.92 0-1.56-.8-1.56-1.96s.65-2 1.56-2c.9 0 1.51.82 1.51 2zm-2.72 0c0 .92.51 1.61 1.22 1.61.7 0 1.16-.66 1.16-1.61 0-.95-.48-1.64-1.16-1.64-.7 0-1.22.72-1.22 1.64zm15.49-2.69c0-1.43.62-2.3 1.64-2.3.41 0 .64.1.8.19l-.18.32c-.2-.1-.35-.14-.64-.14-.69 0-1.16.66-1.24 1.56.13-.38.61-.58 1.04-.58.7 0 1.24.56 1.24 1.3 0 .72-.58 1.3-1.3 1.3-.8 0-1.36-.66-1.36-1.65zm2.34.34c0-.53-.44-.97-.97-.97s-.97.44-.97.97.44.97.97.97c.52.01.97-.44.97-.97zm25.06 7.44h.55v2.63h.6v.34h-.6v.78h-.32v-.78h-1.72v-.29c.65-.82 1.14-1.71 1.49-2.68zm-1.02 2.63h1.24l.01-2.06h-.09c-.17.5-.68 1.45-1.16 2.06zm17.18-1.68h1.86v.36h-2.29v-.23c0-.55.35-.93.98-1.43.47-.37.94-.59.94-1.15 0-.44-.28-.72-.71-.72-.43 0-.77.33-.81.75h-.4c.04-.49.42-1.12 1.2-1.12.68 0 1.11.41 1.11 1.06 0 .76-.48.96-.91 1.3-.33.26-1.02.66-.97 1.18zm14.57-4.54c0 1.18-.6 1.96-1.51 1.96-.92 0-1.56-.8-1.56-1.96s.65-2 1.56-2c.89 0 1.51.82 1.51 2zm-2.73 0c0 .92.51 1.61 1.22 1.61.7 0 1.16-.66 1.16-1.61 0-.95-.48-1.64-1.16-1.64-.69 0-1.22.72-1.22 1.64z"/>
    <path fill="currentColor" d="M51.28 42.31H32.75v.5h18.53c.12.71.73 1.25 1.47 1.25.83 0 1.5-.67 1.5-1.5s-.67-1.5-1.5-1.5c-.74 0-1.36.54-1.47 1.25zM2.71 45.12c-1.09 0-1.85-.82-1.85-2.08 0-1.26.76-2.08 1.85-2.08.74 0 1.33.36 1.62.98l-.5.18c-.22-.42-.62-.66-1.13-.66-.8 0-1.32.6-1.32 1.57 0 .97.52 1.58 1.32 1.58.51 0 .9-.24 1.13-.66l.5.18c-.29.64-.87.99-1.62.99zm4.36-4.14c.89 0 1.46.59 1.46 1.5v2.57H8v-2.32c0-.86-.41-1.25-1.07-1.25-.59 0-1.09.54-1.09 1.34v2.22h-.53v-5.68h.53v2.21h.03c.08-.35.64-.59 1.2-.59zm4.32.06h.06v.47c-.06-.01-.11-.01-.17-.01-.6 0-1.03.62-1.03 1.33v2.13h-.53v-3.84h.42l.12.45h.03c.13-.17.38-.53 1.1-.53zm.62 2c0-1.26.76-2.08 1.85-2.08s1.85.82 1.85 2.08c0 1.26-.76 2.08-1.85 2.08s-1.85-.81-1.85-2.08zm3.17 0c0-.97-.52-1.55-1.32-1.55s-1.32.58-1.32 1.55c0 .97.52 1.55 1.32 1.55s1.32-.58 1.32-1.55zm6.8-.53v2.53h-.53v-2.2c0-.98-.26-1.43-.88-1.43-.64 0-.95.42-.95 1.27v2.36h-.53v-2.2c0-.98-.26-1.43-.88-1.43-.64 0-.95.42-.95 1.27v2.36h-.53v-4h.42l.12.48h.03c.14-.2.4-.58 1.06-.58.53 0 .86.21 1.06.79h.03c.16-.5.68-.79 1.26-.79.83.02 1.27.56 1.27 1.57zm4.41 2.11v.43h-.23c-.3 0-.61-.18-.69-.46h-.03c-.11.32-.59.56-1.03.56-.87 0-1.41-.47-1.41-1.25 0-1.1 1.5-1.17 2.49-.99v-.74c0-.38-.42-.7-.96-.7-.36 0-.68.18-.86.5l-.46-.18c.2-.5.72-.83 1.34-.83 1.07 0 1.46.72 1.46 1.09v2.07c-.02.38.09.5.38.5zm-2.88-.72c0 1.21 1.97.9 1.97-.11v-.5c-1.21-.2-1.97.02-1.97.61zm4.02.92c-.16-.16-.4-.42-.42-.87h.5c.03.45.42.74.97.74s.94-.23.94-.59c0-.45-.41-.61-1.38-1-.61-.25-.89-.56-.89-1.1 0-.64.5-1.05 1.3-1.05.72 0 1.13.27 1.33.88l-.44.14c-.15-.4-.42-.57-.87-.57-.5 0-.83.24-.83.62 0 .34.18.5.58.68 1.32.58 1.68.78 1.68 1.4 0 .62-.58 1.05-1.39 1.05-.46 0-.82-.12-1.08-.33z"/></g></svg>