<svg xmlns="http://www.w3.org/2000/svg" viewBox="0 0 225 225" data-name="example-hues">
    <circle fill="#FFF" stroke="#000" stroke-width=".5" cx="112.3" cy="112.59" r="12"></circle>
    <path fill="var(--hue-12-500)" d="M85.43 14.15l-2.65-9.64C63.57 9.8 46.42 20.09 32.81 33.89l7.11 7.02c12.4-12.57 28.02-21.94 45.51-26.76z" />
    <path fill="var(--hue-11-500)" d="M39.92 40.91l-7.11-7.02C19.21 47.67 9.15 64.95 4.12 84.24l9.68 2.52c4.58-17.57 13.74-33.3 26.12-45.85z" />
    <path fill="var(--hue-10-500)" d="M10.5 112.5c0-8.89 1.15-17.51 3.29-25.74l-9.68-2.52C1.75 93.27.49 102.74.49 112.5c0 10.28 1.4 20.24 4.01 29.7l9.64-2.65c-2.37-8.62-3.64-17.69-3.64-27.05z" />
    <path fill="var(--hue-9-500)" d="M14.15 139.55l-9.64 2.65c5.29 19.2 15.57 36.35 29.36 49.96l7.02-7.11c-12.56-12.39-21.93-28.01-26.74-45.5z" />
    <path fill="var(--hue-8-500)" d="M86.73 211.2c-17.57-4.59-33.3-13.76-45.85-26.15l-7.02 7.11c13.78 13.6 31.05 23.67 50.34 28.71l2.53-9.67z" />
    <path fill="var(--hue-7-500)" d="M112.5 214.5c-8.9 0-17.54-1.15-25.77-3.3l-2.52 9.68a111.88 111.88 0 0028.3 3.62c10.27 0 20.22-1.4 29.68-4l-2.65-9.64a101.94 101.94 0 01-27.04 3.64z" />
    <path fill="var(--hue-6-500)" d="M139.53 210.86l2.65 9.64c19.21-5.28 36.37-15.57 49.98-29.36l-7.11-7.02c-12.4 12.56-28.03 21.93-45.52 26.74z" />
    <path fill="var(--hue-5-500)" d="M185.05 184.13l7.11 7.02c13.61-13.78 23.68-31.06 28.72-50.36l-9.68-2.52c-4.59 17.57-13.76 33.3-26.15 45.86z" />
    <path fill="var(--hue-4-500)" d="M214.5 112.5c0 8.9-1.15 17.53-3.3 25.76l9.68 2.52a111.86 111.86 0 003.62-28.29c0-10.28-1.4-20.24-4.01-29.7l-9.64 2.65c2.38 8.63 3.65 17.7 3.65 27.06z" />
    <path fill="var(--hue-3-500)" d="M210.85 85.45l9.64-2.65c-5.29-19.21-15.58-36.37-29.37-49.98l-7.02 7.11c12.57 12.4 21.94 28.03 26.75 45.52z" />
    <path fill="var(--hue-2-500)" d="M184.1 39.93l7.02-7.11c-13.79-13.6-31.07-23.67-50.37-28.7l-2.52 9.68c17.58 4.57 33.32 13.74 45.87 26.13z" />
    <path fill="var(--hue-1-500)" d="M112.5 10.5c8.89 0 17.51 1.14 25.73 3.29l2.52-9.68C131.72 1.75 122.25.5 112.49.5 102.2.5 92.23 1.9 82.76 4.51l2.65 9.64a102.26 102.26 0 0127.09-3.65z" />
    <g fill="currentColor">
        <path d="M107.39 20.03c.26-.07.64-.11 1-.12.56-.02.92.06 1.18.28.21.17.34.44.35.75.02.53-.3.9-.72 1.06v.02c.32.1.51.38.63.79.15.56.27.94.36 1.1l-.54.02c-.07-.11-.17-.46-.31-.95-.14-.55-.37-.75-.84-.75l-.5.01.07 1.75-.52.02-.16-3.98zm.6 1.82l.53-.02c.56-.02.9-.34.88-.8-.02-.52-.41-.73-.96-.72-.25.01-.43.04-.51.07l.06 1.47zm3.04.69c.02.71.47 1.01 1 1 .38 0 .61-.07.8-.15l.09.38c-.19.08-.5.18-.97.18-.9 0-1.43-.58-1.44-1.46 0-.88.51-1.57 1.36-1.57.95 0 1.21.83 1.21 1.36 0 .11-.01.19-.02.25l-2.03.01zm1.54-.38c0-.33-.14-.86-.74-.85-.53 0-.77.5-.81.86l1.55-.01zm3.78-2.45l-.11 3.51c-.01.26-.01.55 0 .75l-.47-.01-.01-.5h-.01c-.17.32-.53.55-1.01.54-.7-.02-1.22-.63-1.2-1.51.02-.97.64-1.54 1.35-1.52.44.01.74.23.86.47h.01l.05-1.73h.54zm-.61 2.53c0-.07 0-.16-.02-.22a.791.791 0 00-.74-.64c-.55-.02-.89.45-.91 1.1-.02.59.25 1.08.83 1.1.35.01.69-.21.79-.61.02-.07.03-.14.03-.23l.02-.5zm33.7 7.58c-.55 1.28-1.62 1.63-2.57 1.22-.98-.42-1.34-1.48-.86-2.61.51-1.18 1.57-1.64 2.57-1.21 1.01.44 1.33 1.5.86 2.6zm-2.92-1.17c-.34.79-.22 1.69.54 2.02.76.33 1.49-.19 1.85-1.03.32-.74.26-1.68-.54-2.02-.78-.35-1.49.21-1.85 1.03zm3.53 1.55c.15-.31.27-.58.36-.83l.42.2-.23.52.02.01c.29-.3.68-.38 1-.23.05.03.09.05.13.08l-.21.45a.988.988 0 00-.15-.09c-.34-.16-.7-.02-.93.31-.04.06-.09.13-.13.21l-.66 1.4-.47-.23.85-1.8zm2.3 3.34l.13-.35-.02-.01c-.25.13-.62.17-.99-.01-.53-.26-.61-.77-.42-1.14.32-.63 1.04-.69 2.04-.18l.03-.05c.11-.21.24-.63-.29-.9-.24-.12-.53-.17-.77-.15l.05-.36c.28-.03.64.03.97.2.79.4.71 1.04.45 1.56l-.49.97c-.11.23-.21.45-.27.64l-.42-.22zm.59-1.36c-.51-.27-1.14-.47-1.39.03-.15.3-.02.55.22.67.34.17.66.06.84-.12a.45.45 0 00.1-.14l.23-.44zm1.55.08c.15-.26.26-.48.36-.7l.41.22-.21.44.01.01c.26-.17.68-.25 1.1-.02.35.19.78.7.3 1.58l-.83 1.52-.46-.25.81-1.47c.23-.41.26-.83-.18-1.08-.3-.17-.66-.08-.88.13-.05.05-.11.12-.15.2l-.84 1.53-.46-.25 1.02-1.86zm5.48 2.24c-.12.17-.25.37-.43.67l-.87 1.45c-.34.57-.66.85-1.04.92-.38.08-.77-.06-1.08-.24-.3-.18-.58-.45-.71-.7l.32-.28c.1.2.3.45.61.63.46.28.95.24 1.32-.39l.17-.28-.01-.01c-.28.15-.66.17-1.04-.06-.62-.37-.75-1.16-.33-1.85.5-.84 1.34-.99 1.91-.65.43.26.53.63.52.9l.01.01.25-.36.4.24zm-1.06.7c.04-.08.08-.15.1-.22a.76.76 0 00-.35-.86c-.43-.26-.96-.08-1.3.5-.29.49-.29 1.04.2 1.34.28.17.63.14.9-.09.07-.06.13-.14.18-.22l.27-.45zm1.25 1.25c-.38.61-.16 1.1.29 1.39.32.21.54.27.76.31l-.13.37c-.2-.03-.52-.12-.91-.38-.75-.49-.88-1.27-.4-2.01.48-.73 1.29-1.03 2-.57.79.52.55 1.35.26 1.8-.06.09-.11.16-.15.2l-1.72-1.11zm1.5.52c.19-.28.35-.79-.15-1.12-.45-.29-.91 0-1.15.28l1.3.84zm22.02 23.45l1.39-1 1.14-2.4.35.48-.57 1.12c-.16.3-.29.55-.44.81l.01.01c.28-.06.58-.1.92-.16l1.25-.18.35.48-2.68.26-1.4 1.01-.32-.43zm2.36 1c-.59.41-.57.95-.28 1.39.21.31.39.46.57.58l-.26.28c-.17-.11-.43-.32-.69-.7-.5-.74-.31-1.51.42-2s1.58-.45 2.06.26c.53.79-.02 1.46-.46 1.76-.09.06-.17.1-.21.12l-1.15-1.69zm1.18 1.07c.28-.18.63-.59.3-1.08-.3-.44-.84-.36-1.16-.19l.86 1.27zm2.76-.39l.28.45-3.59 2.29-.29-.45 3.6-2.29zm.78 1.23l.28.45-3.62 2.24-.28-.45 3.62-2.24zm-.3 4.96c-.93.54-1.71.13-2.06-.48-.39-.68-.2-1.49.59-1.95.84-.49 1.65-.22 2.06.47.42.73.18 1.52-.59 1.96zm-1.18-1.97c-.55.32-.78.88-.52 1.32.25.44.85.52 1.42.2.43-.25.84-.77.53-1.31s-.95-.49-1.43-.21zm2.87 2.06l-1.13 1.03c-.25.22-.48.43-.72.62l.01.02c.29-.08.61-.14.93-.2l1.53-.27.21.39-1.08 1.07c-.26.26-.49.47-.72.67l.01.02c.28-.09.59-.17.94-.24l1.48-.31.24.46-3 .52-.22-.42 1.02-1.04c.24-.24.46-.45.72-.67v-.01c-.34.1-.65.16-.97.21l-1.44.23-.22-.42 2.16-2.12.25.46zm5.93 23.04c-.14-.16-.33-.51-.45-.99-.28-1.1.2-2.12 1.48-2.45 1.23-.32 2.27.3 2.59 1.52.13.49.1.82.07.97l-.44-.02c.04-.21.04-.51-.04-.83-.24-.92-.98-1.38-2.01-1.11-.96.25-1.43.96-1.19 1.91.08.31.22.61.38.78l-.39.22zm4.16-.27l.11.51-1.77.38v.01c.16.05.32.15.44.29.12.13.22.3.26.5.08.38-.02 1.04-1 1.25l-1.69.37-.11-.51 1.63-.35c.46-.1.81-.35.7-.84a.754.754 0 00-.92-.56l-1.71.37-.11-.51 4.17-.91zm-3.2 5.71l.35-.1v-.02a1.08 1.08 0 01-.58-.8c-.1-.58.25-.95.66-1.02.69-.12 1.18.42 1.37 1.53l.06-.01c.24-.04.65-.18.54-.77a1.41 1.41 0 00-.35-.7l.32-.18c.2.21.36.53.42.89.16.87-.4 1.19-.97 1.3l-1.07.19c-.25.04-.49.1-.68.17l-.07-.48zm1.45-.34c-.09-.57-.31-1.19-.86-1.09-.34.06-.46.31-.41.58.07.37.34.56.6.6.06.01.12.01.17 0l.5-.09zm.74 1.29c.34-.05.63-.1.89-.16l.07.46-.56.1v.02c.41.07.7.35.75.7.01.06.01.1 0 .15l-.49.08c0-.06 0-.11-.01-.18-.05-.37-.37-.59-.78-.6-.07 0-.16 0-.25.01l-1.53.23-.08-.52 1.99-.29zm2.11 2.49l-.83.11.1.75-.4.05-.1-.75-1.55.2c-.36.05-.55.17-.51.46.02.14.05.24.07.3l-.39.07c-.05-.1-.11-.25-.13-.46-.03-.24.02-.45.15-.59.13-.17.38-.25.72-.3l1.57-.2-.06-.45.4-.05.06.45.69-.09.21.5zm-1.56 1.6c.34-.04.63-.07.9-.12l.05.46-.57.08v.02c.4.09.68.38.72.73.01.06 0 .1 0 .15l-.5.05a.54.54 0 000-.18c-.04-.37-.35-.6-.75-.63-.07 0-.16-.01-.25 0l-1.54.16-.06-.52 2-.2zm-.42 2.27c-.71.07-.97.54-.93 1.07.03.38.11.6.21.79l-.37.12c-.1-.18-.22-.49-.25-.95-.07-.89.47-1.47 1.35-1.54.87-.07 1.6.39 1.67 1.23.08.95-.74 1.26-1.27 1.3-.11.01-.19 0-.25 0l-.16-2.02zm.5 1.51c.34-.02.84-.2.8-.8-.04-.53-.55-.73-.92-.74l.12 1.54zm-.75 3.63c-.3.01-.56.03-.79.06l-.02-.47.47-.05v-.01c-.24-.13-.56-.42-.58-.94-.02-.46.21-1.01 1.23-1.05l1.7-.07.02.53-1.61.07c-.55.02-.92.21-.9.69a.758.758 0 00.78.71l1.78-.08.02.53-2.1.08zm-.24.82c-.1.16-.21.43-.2.7 0 .38.2.56.44.56.25 0 .39-.16.53-.55.18-.52.46-.78.81-.78.47-.01.86.37.87.99 0 .29-.08.55-.17.72l-.39-.13c.07-.12.17-.33.16-.6 0-.31-.19-.49-.4-.48-.24 0-.35.18-.49.56-.19.51-.44.77-.87.77-.51.01-.88-.38-.88-1.08 0-.32.07-.61.19-.82l.4.14zm.83 2.74c-.71 0-1.02.45-1.03.98-.01.38.05.61.14.81l-.38.08c-.08-.19-.17-.51-.16-.97.02-.89.61-1.42 1.49-1.4.88.02 1.56.55 1.54 1.39-.02.95-.86 1.18-1.39 1.17-.11 0-.19-.01-.25-.02l.04-2.04zm.35 1.56c.34.01.86-.12.87-.72.01-.53-.48-.78-.84-.83l-.03 1.55zm-1.85 5.45c-.07-.24-.17-.71-.14-1.25.04-.61.23-1.1.64-1.47.36-.32.91-.5 1.54-.46 1.2.09 2.03.98 1.93 2.33-.03.47-.16.82-.26.99l-.42-.15c.11-.21.21-.47.24-.88.07-.98-.5-1.67-1.51-1.74-1.02-.07-1.67.5-1.74 1.44-.02.34.01.58.06.7l1.2.08.06-.82.42.03-.09 1.33-1.93-.13zm1.73.92c.34.04.63.06.9.07l-.05.46-.57-.04v.02c.38.17.59.51.55.86-.01.06-.02.1-.03.15l-.5-.05c.02-.05.03-.11.04-.18.04-.37-.21-.66-.6-.77-.07-.02-.15-.04-.24-.05l-1.54-.16.05-.52 1.99.21zm-.88 2.14c-.71-.08-1.06.33-1.13.86-.05.38-.01.61.04.82l-.39.04c-.06-.19-.11-.52-.05-.98.12-.89.77-1.34 1.64-1.22s1.48.72 1.37 1.55c-.12.94-.98 1.08-1.51 1.01-.11-.01-.19-.04-.24-.05l.27-2.03zm.17 1.58c.33.05.87-.02.95-.61.07-.53-.39-.83-.74-.92l-.21 1.53zm-.59 1.42c-.71-.11-1.07.3-1.16.82-.06.37-.04.61.02.82l-.39.03c-.05-.2-.1-.53-.02-.98.15-.88.82-1.31 1.68-1.17.87.14 1.46.77 1.32 1.6-.16.94-1.02 1.05-1.55.96-.11-.02-.19-.04-.24-.06l.34-2.02zm.12 1.59c.33.06.87 0 .97-.58.09-.53-.36-.84-.71-.94l-.26 1.52zm.18 1.22c.29.06.54.1.77.13l-.09.46-.48-.07v.01c.24.2.44.58.34 1.05-.08.39-.44.96-1.41.76l-1.7-.34.1-.52 1.64.33c.46.09.88 0 .97-.49.07-.34-.12-.65-.39-.8a.572.572 0 00-.23-.08l-1.71-.34.1-.52 2.09.42zm-9.5 22.35c.02-.25.1-.72.33-1.22.26-.55.62-.94 1.13-1.14.45-.17 1.03-.13 1.6.13 1.09.52 1.53 1.64.95 2.87-.2.42-.45.71-.6.83l-.33-.3c.18-.15.36-.37.54-.73.42-.89.14-1.73-.78-2.16-.93-.44-1.74-.14-2.14.71-.15.31-.2.54-.2.67l1.09.51.35-.74.38.18-.57 1.2-1.75-.81zm1.27 1.51c.3.16.57.29.82.39l-.21.41-.52-.24-.01.02c.29.3.36.69.2 1.01-.03.05-.05.09-.08.13l-.44-.23a.56.56 0 00.1-.15c.17-.33.04-.69-.28-.94-.06-.04-.13-.09-.21-.13l-1.38-.71.24-.46 1.77.9zm-1.59 1.66c-.63-.33-1.11-.08-1.36.39-.18.33-.23.56-.25.78l-.38-.1c.02-.2.08-.53.31-.93.43-.78 1.2-.97 1.97-.55s1.12 1.21.72 1.95c-.46.83-1.31.65-1.78.39-.09-.05-.16-.1-.21-.13l.98-1.8zm-.41 1.54c.29.17.82.29 1.1-.23.26-.47-.06-.91-.36-1.12l-.74 1.35zm-1.07 1.11c-.62-.35-1.11-.11-1.38.34-.19.33-.25.56-.28.77l-.37-.12c.02-.2.1-.53.34-.92.46-.77 1.23-.93 1.99-.48s1.08 1.24.65 1.97c-.48.82-1.33.61-1.79.33-.09-.05-.16-.11-.2-.14l1.04-1.75zm-.46 1.52c.29.18.81.32 1.11-.19.27-.46-.03-.91-.32-1.13l-.79 1.32zm-.29 1.21c.25.16.46.29.67.4l-.25.39-.42-.23-.01.01c.16.27.2.7-.06 1.1-.22.34-.76.73-1.59.2l-1.46-.93.28-.45 1.41.9c.39.25.82.32 1.08-.1.19-.29.13-.65-.07-.89a.619.619 0 00-.19-.16l-1.47-.94.28-.44 1.8 1.14zm-18.04 19.02c-.27.04-.61.17-.88.41-.41.35-.46.77-.19 1.07.25.29.55.31 1.1.12.65-.25 1.19-.26 1.56.18.41.48.32 1.17-.28 1.69-.31.27-.6.39-.81.43l-.17-.42c.15-.03.43-.12.71-.35.42-.36.36-.75.18-.96-.25-.29-.55-.27-1.12-.07-.69.25-1.17.22-1.56-.23-.41-.47-.41-1.18.32-1.8.3-.25.69-.44.95-.47l.19.4zm-1.45 2.97c.23.29.43.52.61.73l-.37.29-.33-.37-.01.01c.05.41-.08.79-.45 1.08-.55.44-1.33.3-1.88-.39-.65-.82-.48-1.62.06-2.04.3-.24.67-.32.98-.2l.01-.01-.98-1.23.41-.33 1.95 2.46zm-.89-.28a.81.81 0 00-1.15-.14c-.44.35-.4.91.01 1.43.36.46.91.65 1.35.31.28-.22.38-.64.22-1.01-.03-.06-.06-.13-.11-.19l-.32-.4zm-1.8 2.45c.2.27.39.51.56.71l-.37.28-.36-.45-.02.01c.13.39.02.78-.26.99-.05.04-.08.06-.13.08l-.3-.4c.05-.02.1-.05.15-.09.3-.22.34-.61.16-.97-.03-.06-.07-.14-.13-.21l-.93-1.24.42-.31 1.21 1.6zm-2.77-.43l1.7 2.36-.43.31-1.7-2.36.43-.31zm1.7 3.36c-.11-.14-.09-.34.08-.46.15-.11.34-.07.45.08.11.15.08.35-.07.46-.16.11-.35.07-.46-.08zm-1.63-.8c.17.25.31.45.46.64l-.39.26-.29-.38-.01.01c.04.31-.09.72-.49.99-.33.23-.98.38-1.54-.44l-.98-1.43.44-.3.94 1.38c.26.39.63.61 1.04.33.29-.2.37-.55.28-.84a.755.755 0 00-.11-.22l-.98-1.44.44-.3 1.19 1.74zm-4.5 3.88c-.1-.18-.22-.39-.4-.69l-.89-1.43c-.35-.57-.46-.98-.35-1.35.1-.37.4-.66.71-.86.3-.18.67-.32.95-.31l.1.41c-.23 0-.54.07-.84.26-.46.29-.64.74-.25 1.36l.17.27.01-.01c-.01-.32.14-.66.53-.9.61-.38 1.37-.14 1.8.54.52.83.27 1.65-.29 2-.43.27-.8.19-1.04.05l-.01.01.21.38-.41.27zm-.14-1.26a.762.762 0 001.07.27c.43-.27.51-.82.15-1.39-.3-.48-.8-.73-1.28-.43-.27.17-.42.5-.33.85.02.09.07.19.11.26l.28.44zm-5.79 1.51c.16-.19.5-.53.98-.79.53-.3 1.05-.4 1.58-.27.47.13.92.49 1.22 1.04.58 1.06.28 2.23-.9 2.88-.41.23-.78.31-.97.33l-.1-.43c.24-.02.51-.08.87-.28.86-.48 1.12-1.32.63-2.21-.5-.9-1.33-1.13-2.15-.67-.3.17-.48.32-.56.43l.58 1.05.72-.4.2.37-1.16.64-.94-1.69zm.15 1.96c.16.31.29.56.43.8l-.41.21-.28-.5-.02.01c.06.41-.11.77-.43.93-.05.03-.09.04-.14.05l-.23-.44c.05-.01.1-.03.17-.07.33-.17.44-.54.32-.93-.02-.07-.05-.15-.09-.23l-.7-1.38.46-.24.92 1.79zm-2.28.43c-.32-.64-.86-.71-1.33-.48-.34.16-.52.32-.66.48l-.24-.3c.13-.16.38-.38.79-.58.81-.38 1.54-.08 1.92.71.38.79.21 1.63-.56 2-.86.41-1.44-.24-1.67-.72-.05-.1-.07-.18-.09-.23l1.84-.88zm-1.23 1c.14.31.49.72 1.03.46.48-.23.48-.77.36-1.12l-1.39.66zm-1.49.27c-.3-.65-.83-.74-1.32-.53-.35.15-.53.3-.68.46l-.23-.31c.14-.15.39-.37.81-.55.82-.36 1.54-.03 1.89.77.35.8.15 1.64-.62 1.98-.87.38-1.43-.28-1.65-.77-.04-.1-.07-.18-.08-.23l1.88-.82zm-1.26.97c.13.31.47.73 1.01.49.49-.21.51-.76.4-1.11l-1.41.62zm-.96.82c.11.28.21.51.31.72l-.44.17-.2-.44h-.01c-.03.31-.25.68-.69.86-.37.15-1.04.15-1.41-.77l-.64-1.61.49-.19.62 1.56c.17.44.48.74.94.55.32-.13.49-.46.46-.76 0-.07-.02-.16-.06-.24l-.64-1.63.49-.19.78 1.97zm-33.73 4.75c.19-.1.57-.21 1.06-.22 1.14-.03 2.02.67 2.05 1.99.03 1.27-.8 2.15-2.06 2.18-.5.01-.83-.09-.96-.16l.11-.43c.2.09.48.15.82.15.95-.02 1.56-.65 1.54-1.71-.02-.99-.61-1.61-1.59-1.59-.32.01-.64.08-.85.19l-.12-.4zm-.71 2.76l-.62-1.72c-.06-.19-.13-.42-.18-.6h-.01c-.06.17-.12.39-.19.6l-.59 1.7-.56-.01.81-2.06c.39-.99.65-1.5 1.01-1.81.26-.22.52-.31.65-.33l.13.44c-.13.04-.31.12-.46.25-.15.11-.33.31-.45.58a.46.46 0 00-.04.13c0 .03.01.07.03.14l1.04 2.69h-.57zm-4.15-3l.03.37h.02c.17-.22.49-.41.9-.4.59.03.87.45.85.87-.03.7-.67 1.06-1.79 1v.06c-.01.24.04.67.63.7.27.01.55-.06.76-.18l.11.35c-.25.15-.6.23-.96.22-.89-.04-1.08-.65-1.05-1.23l.04-1.08c.01-.25.01-.5-.02-.7l.48.02zm.02 1.48c.58.04 1.23-.04 1.26-.6.01-.34-.21-.51-.48-.52a.702.702 0 00-.72.46c-.02.05-.03.11-.04.17l-.02.49zm-1.45.57c-.02.3-.04.54-.04.79l-.47-.04.01-.48h-.01c-.17.27-.52.51-1 .47-.4-.03-1.01-.32-.93-1.31l.13-1.73.53.04-.13 1.67c-.04.47.11.87.6.91.35.03.64-.2.75-.49.03-.06.05-.15.05-.24l.13-1.74.53.04-.15 2.11zm-33.21-9.6l.94-.95.48.24-3.03 3.02-.56-.28.56-4.24.5.25-.18 1.33 1.29.63zm-1.37-.22l-.16 1.22c-.04.28-.09.52-.14.76h.01c.16-.19.33-.38.51-.57l.88-.87-1.1-.54zm-.62-1.87l-1.97.88c-.19.08-.36.14-.55.22l-.01.01 1.38.75-.2.37-1.95-1.05.16-.29 1.94-.86c.18-.08.36-.16.54-.22l.01-.01-1.49-.81.2-.37 2.07 1.12-.13.26zm-4.88-2.19c.15-.26.28-.49.38-.7l.4.24-.21.42h.01c.24-.13.66-.24 1.1.02.39.23.74.72.22 1.6l-.86 1.46-.46-.27.81-1.39c.28-.48.32-.88-.09-1.12a.761.761 0 00-.84.06.74.74 0 00-.18.21l-.9 1.54-.46-.27 1.08-1.8zm-1.37.58c-.18.29-.33.54-.46.78l-.39-.25.29-.49-.02-.01c-.32.26-.72.3-1.02.12-.05-.03-.08-.06-.12-.1l.26-.42c.04.04.08.07.14.11.32.2.69.1.96-.2.05-.05.1-.12.15-.2l.82-1.31.44.28-1.05 1.69zm-1.54-1.73c.38-.6.17-1.1-.27-1.39-.32-.21-.54-.28-.75-.32l.13-.36c.2.03.52.13.91.38.75.49.87 1.28.38 2.01-.48.73-1.3 1.02-2 .55-.79-.52-.54-1.36-.25-1.8.06-.09.12-.15.15-.2l1.7 1.13zm-1.5-.54c-.19.28-.36.79.14 1.12.45.29.91.01 1.15-.27l-1.29-.85zm-28.3-26.35c-.16-.17-.37-.46-.56-.78-.27-.45-.36-.78-.32-1.1.03-.26.17-.49.44-.66.34-.2.76-.15 1.11.13h.01c-.12-.38-.07-.93.44-1.24.3-.18.6-.2.87-.12.37.11.7.44 1.04 1.01.19.31.31.56.38.72l-3.41 2.04zm1.15-1.3l-.24-.41c-.28-.48-.7-.61-1.03-.41-.41.24-.38.65-.11 1.1.12.21.21.32.27.38l1.11-.66zm1.66-1c-.04-.1-.11-.23-.2-.39-.28-.46-.7-.79-1.21-.49-.47.28-.43.81-.13 1.3l.22.37 1.32-.79zm-4.72-.43l-.26-.46 3.71-2.08.26.46-3.71 2.08zm1.19-5.08c.27-.14.5-.27.69-.39l.22.41-.4.25.01.01c.27.01.69.14.93.6.21.4.24 1-.66 1.48l-1.5.79-.26-.46 1.42-.75c.49-.26.74-.58.51-1a.756.756 0 00-1.01-.31l-1.58.83-.25-.47 1.88-.99zm-1.02-.79c.64-.32.7-.86.47-1.33-.16-.34-.32-.52-.48-.66l.3-.25c.16.13.38.38.58.79.39.8.09 1.54-.7 1.92-.79.38-1.63.22-2-.54-.41-.85.23-1.44.71-1.67.1-.05.18-.07.23-.09l.89 1.83zm-1.01-1.23c-.3.14-.71.5-.45 1.03.23.48.78.48 1.12.36l-.67-1.39zm-6.64-32.8l-3.94 1.61-.04-.56 1.94-.77c.53-.21 1.01-.4 1.48-.54v-.01c-.48-.08-1-.21-1.53-.35l-2.04-.54-.04-.56 4.14 1.14.03.58zm-3.86-2.76c.18-.01.33.11.34.32.01.19-.13.32-.31.33-.19.01-.33-.13-.34-.32-.01-.19.13-.32.31-.33zm3.74.46l-2.9.1-.02-.53 2.9-.1.02.53zm-1.55-4.01c1.08-.01 1.55.73 1.55 1.44.01.79-.57 1.4-1.49 1.4-.97.01-1.55-.62-1.55-1.43 0-.83.61-1.4 1.49-1.41zm.05 2.31c.64 0 1.11-.37 1.11-.89 0-.5-.48-.88-1.14-.87-.49 0-1.12.25-1.11.88.01.62.59.88 1.14.88zm-2.81-3.02l.01-.53 4.26.08-.01.53-4.26-.08zm2.94-1.69c.71.02 1.03-.42 1.05-.95.02-.38-.04-.61-.12-.81l.38-.07c.08.19.16.51.14.97-.04.89-.65 1.4-1.52 1.36-.87-.04-1.54-.58-1.5-1.43.04-.95.89-1.16 1.42-1.14.11.01.19.02.24.03l-.09 2.04zm-.31-1.56c-.34-.02-.86.1-.89.69-.02.53.46.79.82.85l.07-1.54zm-1.88-1.96l.83.06.05-.75.4.03-.05.75 1.56.11c.36.03.57-.06.59-.35.01-.14 0-.24-.01-.31h.4c.03.1.05.27.04.47-.02.25-.11.44-.26.55-.17.14-.43.17-.77.15l-1.58-.11-.03.45-.4-.03.03-.45-.69-.05-.11-.52zm9.73-30.45c-.53-.2-1.17-.44-1.63-.64l-.01.02c.38.32.77.67 1.21 1.08l1.51 1.44-.16.36-2.03-.17c-.6-.05-1.14-.11-1.63-.2v.01c.46.21 1.07.51 1.61.79l1.55.79-.2.46-3.6-1.88.27-.61 2.07.15c.52.04.99.1 1.41.17l.01-.02c-.33-.26-.68-.57-1.08-.94l-1.51-1.44.27-.61L32.23 75l-.2.47-1.68-.62zm2.94-2.01l-.35-.12-.01.02c.13.25.18.62 0 .99-.26.53-.76.62-1.14.43-.63-.31-.7-1.04-.2-2.04l-.05-.03c-.22-.11-.63-.24-.89.3-.12.24-.17.53-.14.77l-.37-.04c-.03-.29.03-.64.19-.97.39-.8 1.03-.73 1.55-.47l.98.48c.23.11.45.21.65.26l-.22.42zm-1.37-.58c-.26.51-.46 1.15.05 1.39.31.15.55.02.67-.23a.7.7 0 00-.13-.84.45.45 0 00-.14-.1l-.45-.22zm.54-4.11c.18.11.38.23.69.4l1.49.79c.59.31.89.62.98.99.1.37-.02.77-.19 1.1-.16.31-.42.61-.67.74l-.29-.31c.2-.11.43-.33.6-.65.25-.48.19-.96-.46-1.3l-.29-.15-.01.01c.16.27.21.65-.01 1.04-.34.64-1.12.8-1.83.43-.87-.46-1.06-1.29-.75-1.88.24-.44.6-.56.87-.56l.01-.01-.38-.23.24-.41zm.75 1.02c-.08-.04-.15-.07-.23-.09-.32-.06-.66.05-.84.39-.24.44-.03.96.56 1.28.5.27 1.06.24 1.33-.27a.78.78 0 00-.13-.9.912.912 0 00-.23-.17l-.46-.24zm1.19-1.31c.62.35 1.11.1 1.37-.35.19-.33.25-.56.27-.77l.37.11c-.02.2-.1.53-.33.92-.45.77-1.23.94-1.98.5-.76-.44-1.1-1.23-.67-1.96.48-.82 1.32-.62 1.79-.35.09.05.16.11.2.14l-1.02 1.76zm.45-1.53c-.29-.17-.81-.31-1.11.2-.27.46.04.91.33 1.13l.78-1.33zm.28-1.21c-.25-.16-.47-.29-.68-.4l.25-.4.42.23.01-.01c-.16-.27-.21-.7.05-1.1.21-.34.75-.74 1.59-.21l1.47.92-.28.45-1.42-.89c-.4-.25-.82-.31-1.08.11-.19.29-.12.65.08.88.04.06.11.11.19.16l1.48.93-.28.45-1.8-1.12zm.81-4.25l.69.46.42-.63.33.22-.42.63 1.3.87c.3.2.52.23.69-.02.08-.11.12-.21.14-.27l.34.2c-.02.11-.09.26-.2.43-.14.21-.31.33-.5.35-.21.04-.46-.06-.74-.25l-1.31-.88-.25.37-.33-.22.25-.37-.58-.39.17-.5zm4.77-.33l-.32-.18-.01.01c.09.26.08.64-.16.97-.34.48-.85.48-1.19.24-.57-.41-.52-1.14.13-2.05l-.05-.03c-.2-.14-.59-.34-.93.15-.16.22-.25.5-.26.74l-.35-.1c.01-.29.13-.63.34-.93.51-.72 1.13-.55 1.61-.21l.89.63c.21.14.41.28.6.36l-.3.4zm-1.25-.8c-.34.46-.64 1.06-.18 1.38.28.2.54.11.7-.12.22-.31.16-.64.01-.85a.456.456 0 00-.12-.12l-.41-.29zm19.39-22.81c.19-.2.48-.43.78-.64.46-.32.81-.44 1.15-.4.27.03.52.19.7.45.3.44.23.92-.04 1.28l.01.01c.32-.09.64.04.95.33.43.39.73.66.89.74l-.44.31c-.12-.06-.39-.29-.77-.64-.42-.39-.71-.44-1.11-.18l-.41.28 1 1.44-.43.3-2.28-3.28zm1.48 1.22l.44-.3c.46-.32.58-.77.31-1.15-.3-.43-.74-.4-1.2-.09-.21.14-.34.27-.4.33l.85 1.21zm4.83-2.4c.58.9.21 1.7-.38 2.08-.66.42-1.48.27-1.98-.51-.53-.82-.3-1.64.38-2.08.69-.44 1.5-.24 1.98.51zm-1.93 1.27c.34.54.91.74 1.35.46.43-.27.49-.88.13-1.43-.27-.41-.81-.81-1.34-.47-.52.35-.43.98-.14 1.44zm2.96-.79c.19.01.48-.04.71-.18.33-.2.39-.45.26-.66-.13-.22-.33-.26-.74-.18-.54.11-.9-.01-1.08-.31-.24-.4-.11-.92.43-1.24.25-.15.52-.21.71-.21l.08.4c-.13 0-.36.02-.6.16-.27.16-.33.4-.21.59.12.21.33.21.73.14.53-.09.88-.01 1.1.36.26.44.1.95-.49 1.3-.27.16-.57.25-.8.25l-.1-.42zm1.93-2.08c.36.62.9.65 1.36.4.33-.18.5-.35.63-.52l.26.29c-.12.16-.35.4-.76.63-.78.43-1.53.18-1.96-.58-.43-.76-.31-1.62.43-2.03.83-.46 1.45.15 1.71.61.05.09.08.17.1.22l-1.77.98zm1.17-1.09c-.16-.3-.54-.68-1.06-.39-.47.26-.43.8-.29 1.14l1.35-.75z"></path>
    </g>
</svg>