<svg viewBox="0 0 70 226" xmlns="http://www.w3.org/2000/svg" data-name="example-values"><path class="fill-value-0" d="M23.41 200.14l-3.41.95-1 .28-3 .83-4.14 1.14-7.45 2.07.08 20.12 7.46-2.06 4.05-1.13 4-1.11 3.49-1z"/><path class="fill-value-0--dark" d="M1.62 203.16a5.08 5.08 0 01-1.16-2.27V221a5.59 5.59 0 003.36 4.17l.67.36-.08-20.12a10.75 10.75 0 01-2.79-2.25z"/><path class="fill-value-1" d="M23.41 180.14l-3.41.95-1 .28-3 .83-4.14 1.14-7.45 2.07.08 20.12 7.46-2.06 4.05-1.13 4-1.11 3.49-1z"/><path class="fill-value-1--dark" d="M1.62 183.16a5.08 5.08 0 01-1.16-2.27V201a5.59 5.59 0 003.36 4.17l.67.36-.08-20.12a10.75 10.75 0 01-2.79-2.25z"/><path class="fill-value-2" d="M23.41 160.14l-3.41 1-1 .28-3 .83-4.14 1.14-7.45 2.07.08 20.12 7.46-2.06 4.05-1.13 4-1.11 3.49-1z"/><path class="fill-value-2--dark" d="M1.62 163.16a5.08 5.08 0 01-1.16-2.27V181a5.59 5.59 0 003.36 4.17l.67.36-.08-20.12a10.75 10.75 0 01-2.79-2.25z"/><path class="fill-value-3" d="M23.41 140.14l-3.41 1-1 .28-3 .83-4.14 1.14-7.45 2.07.08 20.12 7.46-2.06 4.05-1.13 4-1.11 3.49-1z"/><path class="fill-value-3--dark" d="M1.62 143.16a5.08 5.08 0 01-1.16-2.27V161a5.59 5.59 0 003.36 4.17l.67.36-.08-20.12a10.75 10.75 0 01-2.79-2.25z"/><path class="fill-value-4" d="M23.41 120.14l-3.41 1-1 .28-3 .83-4.14 1.14-7.45 2.07.08 20.12 7.46-2.06 4.05-1.13 4-1.11 3.49-1z"/><path class="fill-value-4--dark" d="M1.62 123.16a5.08 5.08 0 01-1.16-2.27V141a5.59 5.59 0 003.36 4.17l.67.36-.08-20.12a10.75 10.75 0 01-2.79-2.25z"/><path class="fill-value-5" d="M23.41 100.14l-3.41 1-1 .28-3 .83-4.14 1.14-7.45 2.07.08 20.12 7.46-2.06 4.05-1.13 4-1.11 3.49-1z"/><path class="fill-value-5--dark" d="M1.62 103.16a5.08 5.08 0 01-1.16-2.27V121a5.59 5.59 0 003.36 4.17l.67.36-.08-20.12a10.75 10.75 0 01-2.79-2.25z"/><path class="fill-value-6" d="M23.41 80.14l-3.41 1-1 .28-3 .83-4.14 1.14-7.45 2.07.08 20.12 7.46-2.06 4.05-1.13 4-1.11 3.49-1z"/><path class="fill-value-6--dark" d="M1.62 83.16a5.08 5.08 0 01-1.16-2.27V101a5.59 5.59 0 003.36 4.17l.67.36-.08-20.12a10.75 10.75 0 01-2.79-2.25z"/><path class="fill-value-7" d="M23.41 60.14l-3.41 1-1 .28-3 .83-4.14 1.14-7.45 2.07.08 20.12 7.46-2.06L16 82.39l4-1.11 3.49-1z"/><path class="fill-value-7--dark" d="M1.62 63.16a5.08 5.08 0 01-1.16-2.27V81a5.59 5.59 0 003.36 4.17l.67.36-.08-20.12a10.75 10.75 0 01-2.79-2.25z"/><path class="fill-value-8" d="M23.41 40.14l-3.41 1-1 .28-3 .83-4.14 1.14-7.45 2.07.08 20.12 7.46-2.06L16 62.39l4-1.11 3.49-1z"/><path class="fill-value-8--dark" d="M1.62 43.16a5.08 5.08 0 01-1.16-2.27V61a5.59 5.59 0 003.36 4.17l.67.36-.08-20.12a10.75 10.75 0 01-2.79-2.25z"/><path class="fill-value-9" d="M23.41 20.14l-3.41 1-1 .28-3 .83-4.14 1.14-7.45 2.07.08 20.12 7.46-2.06L16 42.39l4-1.11 3.49-1z"/><path class="fill-value-9--dark" d="M1.62 23.16a5.08 5.08 0 01-1.16-2.27V41a5.59 5.59 0 003.36 4.17l.67.36-.08-20.12a10.75 10.75 0 01-2.79-2.25z"/><path class="fill-value-10" d="M23.41.14l-3.41 1-1 .28-3 .83-4.14 1.14-7.45 2.07.08 20.12 7.46-2.06L16 22.39l4-1.11 3.49-1z"/><path class="fill-value-10--dark" d="M1.62 3.16A5.08 5.08 0 01.46.89V21a5.59 5.59 0 003.36 4.17l.67.36-.08-20.12a10.75 10.75 0 01-2.79-2.25z"/><path class="fill-value-10" d="M20 .25l-4 .14L9.46.6l-9 .29a5.08 5.08 0 001.16 2.27c.795.9 1.734 1.66 2.78 2.25L16 2.2l4-1.11 3.41-1L20 .25z"/><g><path fill="currentColor" d="M32 14.752c0 .72-.616 1.232-1.536 1.288v.472h-.36v-.48c-.808-.072-1.376-.52-1.552-1.232l-.024-.128h.52c.056.496.464.84 1.056.904v-2.064c-.488-.088-.88-.296-1.136-.568-.176-.176-.272-.448-.272-.8 0-.728.536-1.208 1.408-1.256V10.4h.36v.496c.872.064 1.416.512 1.456 1.208h-.504c-.04-.408-.408-.696-.952-.752V13.2c.968.192 1.536.8 1.536 1.552zm-2.8-2.584c0 .464.312.784.904.952v-1.768c-.56.056-.904.36-.904.816zm1.264 3.408c.592-.056 1.04-.408 1.04-.848 0-.496-.384-.912-1.04-1.12v1.968zM32.568 12h.52l1.192 3.152h.032L35.504 12h.52l-1.504 4h-.456l-1.496-4zm5.552 4.096c-.872 0-1.408-.472-1.408-1.248 0-1.104 1.504-1.176 2.488-.992V12.48h-2.088V12h2.592v3.064c0 .384.112.56.4.592V16h-.232a.618.618 0 01-.616-.464h-.032c-.112.32-.664.56-1.104.56zm-.896-1.248c0 1.208 1.976.904 1.976-.112v-.504c-1.224-.192-1.976.032-1.976.616zm3.792-4.544h.528V16h-.528v-5.696zM45.376 16l-.12-.52h-.032c-.08.152-.248.616-1.104.616-.848 0-1.376-.592-1.376-1.56V12h.528v2.216c0 .936.328 1.432.96 1.432.672 0 1.032-.448 1.032-1.272V12h.528v4h-.416zm1.992-1.816c0 .816.6 1.416 1.32 1.416.552 0 .96-.232 1.176-.632l.464.168c-.296.6-.872.96-1.64.96-1.104 0-1.832-.848-1.832-2.12 0-1.24.736-2.072 1.832-2.072 1.088 0 1.816.888 1.832 2.112v.168h-3.152zm1.32-1.784c-.752 0-1.224.496-1.304 1.344h2.624c-.08-.848-.568-1.344-1.32-1.344zm2.88 1.544v-.448h2.088v.448h-2.088zm3.792-1.688h-1.008v-.368h.296a.692.692 0 00.712-.704v-.336h.488V16h-.488v-3.744zm3.912-1.456c1.192 0 2.016 1.096 2.016 2.672 0 1.568-.8 2.608-2.016 2.608-1.232 0-2.088-1.064-2.088-2.608 0-1.552.872-2.672 2.088-2.672zm0 .48c-.92 0-1.624.96-1.624 2.192 0 1.232.68 2.144 1.624 2.144.928 0 1.544-.88 1.544-2.144 0-1.264-.64-2.192-1.544-2.192zM32 114.752c0 .72-.616 1.232-1.536 1.288v.472h-.36v-.48c-.808-.072-1.376-.52-1.552-1.232l-.024-.128h.52c.056.496.464.84 1.056.904v-2.064c-.488-.088-.88-.296-1.136-.568-.176-.176-.272-.448-.272-.8 0-.728.536-1.208 1.408-1.256v-.488h.36v.496c.872.064 1.416.512 1.456 1.208h-.504c-.04-.408-.408-.696-.952-.752v1.848c.968.192 1.536.8 1.536 1.552zm-2.8-2.584c0 .464.312.784.904.952v-1.768c-.56.056-.904.36-.904.816zm1.264 3.408c.592-.056 1.04-.408 1.04-.848 0-.496-.384-.912-1.04-1.12v1.968zM32.568 112h.52l1.192 3.152h.032L35.504 112h.52l-1.504 4h-.456l-1.496-4zm5.552 4.096c-.872 0-1.408-.472-1.408-1.248 0-1.104 1.504-1.176 2.488-.992v-1.376h-2.088V112h2.592v3.064c0 .384.112.56.4.592V116h-.232a.618.618 0 01-.616-.464h-.032c-.112.32-.664.56-1.104.56zm-.896-1.248c0 1.208 1.976.904 1.976-.112v-.504c-1.224-.192-1.976.032-1.976.616zm3.792-4.544h.528V116h-.528v-5.696zm4.36 5.696l-.12-.52h-.032c-.08.152-.248.616-1.104.616-.848 0-1.376-.592-1.376-1.56V112h.528v2.216c0 .936.328 1.432.96 1.432.672 0 1.032-.448 1.032-1.272V112h.528v4h-.416zm1.992-1.816c0 .816.6 1.416 1.32 1.416.552 0 .96-.232 1.176-.632l.464.168c-.296.6-.872.96-1.64.96-1.104 0-1.832-.848-1.832-2.12 0-1.24.736-2.072 1.832-2.072 1.088 0 1.816.888 1.832 2.112v.168h-3.152zm1.32-1.784c-.752 0-1.224.496-1.304 1.344h2.624c-.08-.848-.568-1.344-1.32-1.344zm2.88 1.544v-.448h2.088v.448h-2.088zm4.256-2.656l-.296 1.56h.032c.2-.216.616-.368 1.056-.368 1.024 0 1.784.76 1.784 1.792s-.768 1.808-1.792 1.808c-.92 0-1.64-.624-1.776-1.464l.44-.104c.072.624.616 1.12 1.336 1.12.776 0 1.344-.576 1.344-1.36 0-.784-.568-1.352-1.344-1.352-.52 0-.88.168-1.064.464l-.488-.184.392-2.352h2.672v.44h-2.296zM32 34.752c0 .72-.616 1.232-1.536 1.288v.472h-.36v-.48c-.808-.072-1.376-.52-1.552-1.232l-.024-.128h.52c.056.496.464.84 1.056.904v-2.064c-.488-.088-.88-.296-1.136-.568-.176-.176-.272-.448-.272-.8 0-.728.536-1.208 1.408-1.256V30.4h.36v.496c.872.064 1.416.512 1.456 1.208h-.504c-.04-.408-.408-.696-.952-.752V33.2c.968.192 1.536.8 1.536 1.552zm-2.8-2.584c0 .464.312.784.904.952v-1.768c-.56.056-.904.36-.904.816zm1.264 3.408c.592-.056 1.04-.408 1.04-.848 0-.496-.384-.912-1.04-1.12v1.968zM32.568 32h.52l1.192 3.152h.032L35.504 32h.52l-1.504 4h-.456l-1.496-4zm5.552 4.096c-.872 0-1.408-.472-1.408-1.248 0-1.104 1.504-1.176 2.488-.992V32.48h-2.088V32h2.592v3.064c0 .384.112.56.4.592V36h-.232a.618.618 0 01-.616-.464h-.032c-.112.32-.664.56-1.104.56zm-.896-1.248c0 1.208 1.976.904 1.976-.112v-.504c-1.224-.192-1.976.032-1.976.616zm3.792-4.544h.528V36h-.528v-5.696zM45.376 36l-.12-.52h-.032c-.08.152-.248.616-1.104.616-.848 0-1.376-.592-1.376-1.56V32h.528v2.216c0 .936.328 1.432.96 1.432.672 0 1.032-.448 1.032-1.272V32h.528v4h-.416zm1.992-1.816c0 .816.6 1.416 1.32 1.416.552 0 .96-.232 1.176-.632l.464.168c-.296.6-.872.96-1.64.96-1.104 0-1.832-.848-1.832-2.12 0-1.24.736-2.072 1.832-2.072 1.088 0 1.816.888 1.832 2.112v.168h-3.152zm1.32-1.784c-.752 0-1.224.496-1.304 1.344h2.624c-.08-.848-.568-1.344-1.32-1.344zm2.88 1.544v-.448h2.088v.448h-2.088zm4.88-3.136c1.08 0 1.816.88 1.816 2.2 0 1.904-.824 3.072-2.192 3.072-.544 0-.848-.128-1.072-.256l.24-.424c.264.136.472.192.856.192.92 0 1.544-.88 1.648-2.088-.168.512-.816.776-1.384.776-.928 0-1.648-.752-1.648-1.736 0-.96.776-1.736 1.736-1.736zm0 .44c-.704 0-1.296.592-1.296 1.296 0 .704.592 1.296 1.296 1.296.704 0 1.296-.592 1.296-1.296 0-.704-.592-1.296-1.296-1.296zM32 134.752c0 .72-.616 1.232-1.536 1.288v.472h-.36v-.48c-.808-.072-1.376-.52-1.552-1.232l-.024-.128h.52c.056.496.464.84 1.056.904v-2.064c-.488-.088-.88-.296-1.136-.568-.176-.176-.272-.448-.272-.8 0-.728.536-1.208 1.408-1.256v-.488h.36v.496c.872.064 1.416.512 1.456 1.208h-.504c-.04-.408-.408-.696-.952-.752v1.848c.968.192 1.536.8 1.536 1.552zm-2.8-2.584c0 .464.312.784.904.952v-1.768c-.56.056-.904.36-.904.816zm1.264 3.408c.592-.056 1.04-.408 1.04-.848 0-.496-.384-.912-1.04-1.12v1.968zM32.568 132h.52l1.192 3.152h.032L35.504 132h.52l-1.504 4h-.456l-1.496-4zm5.552 4.096c-.872 0-1.408-.472-1.408-1.248 0-1.104 1.504-1.176 2.488-.992v-1.376h-2.088V132h2.592v3.064c0 .384.112.56.4.592V136h-.232a.618.618 0 01-.616-.464h-.032c-.112.32-.664.56-1.104.56zm-.896-1.248c0 1.208 1.976.904 1.976-.112v-.504c-1.224-.192-1.976.032-1.976.616zm3.792-4.544h.528V136h-.528v-5.696zm4.36 5.696l-.12-.52h-.032c-.08.152-.248.616-1.104.616-.848 0-1.376-.592-1.376-1.56V132h.528v2.216c0 .936.328 1.432.96 1.432.672 0 1.032-.448 1.032-1.272V132h.528v4h-.416zm1.992-1.816c0 .816.6 1.416 1.32 1.416.552 0 .96-.232 1.176-.632l.464.168c-.296.6-.872.96-1.64.96-1.104 0-1.832-.848-1.832-2.12 0-1.24.736-2.072 1.832-2.072 1.088 0 1.816.888 1.832 2.112v.168h-3.152zm1.32-1.784c-.752 0-1.224.496-1.304 1.344h2.624c-.08-.848-.568-1.344-1.32-1.344zm2.88 1.544v-.448h2.088v.448h-2.088zm3.008.552a12.352 12.352 0 001.992-3.568h.736v3.504h.8v.448h-.8v1.04h-.432v-1.04h-2.296v-.384zm2.184-2.816c-.224.672-.912 1.936-1.544 2.752h1.656l.008-2.752h-.12zM32 54.752c0 .72-.616 1.232-1.536 1.288v.472h-.36v-.48c-.808-.072-1.376-.52-1.552-1.232l-.024-.128h.52c.056.496.464.84 1.056.904v-2.064c-.488-.088-.88-.296-1.136-.568-.176-.176-.272-.448-.272-.8 0-.728.536-1.208 1.408-1.256V50.4h.36v.496c.872.064 1.416.512 1.456 1.208h-.504c-.04-.408-.408-.696-.952-.752V53.2c.968.192 1.536.8 1.536 1.552zm-2.8-2.584c0 .464.312.784.904.952v-1.768c-.56.056-.904.36-.904.816zm1.264 3.408c.592-.056 1.04-.408 1.04-.848 0-.496-.384-.912-1.04-1.12v1.968zM32.568 52h.52l1.192 3.152h.032L35.504 52h.52l-1.504 4h-.456l-1.496-4zm5.552 4.096c-.872 0-1.408-.472-1.408-1.248 0-1.104 1.504-1.176 2.488-.992V52.48h-2.088V52h2.592v3.064c0 .384.112.56.4.592V56h-.232a.618.618 0 01-.616-.464h-.032c-.112.32-.664.56-1.104.56zm-.896-1.248c0 1.208 1.976.904 1.976-.112v-.504c-1.224-.192-1.976.032-1.976.616zm3.792-4.544h.528V56h-.528v-5.696zM45.376 56l-.12-.52h-.032c-.08.152-.248.616-1.104.616-.848 0-1.376-.592-1.376-1.56V52h.528v2.216c0 .936.328 1.432.96 1.432.672 0 1.032-.448 1.032-1.272V52h.528v4h-.416zm1.992-1.816c0 .816.6 1.416 1.32 1.416.552 0 .96-.232 1.176-.632l.464.168c-.296.6-.872.96-1.64.96-1.104 0-1.832-.848-1.832-2.12 0-1.24.736-2.072 1.832-2.072 1.088 0 1.816.888 1.832 2.112v.168h-3.152zm1.32-1.784c-.752 0-1.224.496-1.304 1.344h2.624c-.08-.848-.568-1.344-1.32-1.344zm2.88 1.544v-.448h2.088v.448h-2.088zm4.984 2.112c-1.024 0-1.712-.576-1.712-1.48 0-.56.304-1.04.888-1.304v-.032c-.464-.288-.632-.672-.632-1.064 0-.808.608-1.352 1.456-1.352.864 0 1.472.536 1.472 1.352 0 .392-.168.776-.648 1.064v.032c.6.264.904.76.904 1.304 0 .904-.688 1.48-1.728 1.48zm0-2.96c.632 0 1.048-.352 1.048-.92 0-.56-.432-.912-1.048-.912-.6 0-1.04.368-1.04.912 0 .568.424.92 1.04.92zm0 2.512c.752 0 1.232-.384 1.232-1.032 0-.664-.488-1.072-1.232-1.072s-1.224.408-1.224 1.072c0 .648.48 1.032 1.224 1.032zM32 154.752c0 .72-.616 1.232-1.536 1.288v.472h-.36v-.48c-.808-.072-1.376-.52-1.552-1.232l-.024-.128h.52c.056.496.464.84 1.056.904v-2.064c-.488-.088-.88-.296-1.136-.568-.176-.176-.272-.448-.272-.8 0-.728.536-1.208 1.408-1.256v-.488h.36v.496c.872.064 1.416.512 1.456 1.208h-.504c-.04-.408-.408-.696-.952-.752v1.848c.968.192 1.536.8 1.536 1.552zm-2.8-2.584c0 .464.312.784.904.952v-1.768c-.56.056-.904.36-.904.816zm1.264 3.408c.592-.056 1.04-.408 1.04-.848 0-.496-.384-.912-1.04-1.12v1.968zM32.568 152h.52l1.192 3.152h.032L35.504 152h.52l-1.504 4h-.456l-1.496-4zm5.552 4.096c-.872 0-1.408-.472-1.408-1.248 0-1.104 1.504-1.176 2.488-.992v-1.376h-2.088V152h2.592v3.064c0 .384.112.56.4.592V156h-.232a.618.618 0 01-.616-.464h-.032c-.112.32-.664.56-1.104.56zm-.896-1.248c0 1.208 1.976.904 1.976-.112v-.504c-1.224-.192-1.976.032-1.976.616zm3.792-4.544h.528V156h-.528v-5.696zm4.36 5.696l-.12-.52h-.032c-.08.152-.248.616-1.104.616-.848 0-1.376-.592-1.376-1.56V152h.528v2.216c0 .936.328 1.432.96 1.432.672 0 1.032-.448 1.032-1.272V152h.528v4h-.416zm1.992-1.816c0 .816.6 1.416 1.32 1.416.552 0 .96-.232 1.176-.632l.464.168c-.296.6-.872.96-1.64.96-1.104 0-1.832-.848-1.832-2.12 0-1.24.736-2.072 1.832-2.072 1.088 0 1.816.888 1.832 2.112v.168h-3.152zm1.32-1.784c-.752 0-1.224.496-1.304 1.344h2.624c-.08-.848-.568-1.344-1.32-1.344zm2.88 1.544v-.448h2.088v.448h-2.088zm3.352.952c.072.408.48.68 1.024.68.592 0 1.048-.44 1.048-1.024 0-.544-.512-1.04-1.168-1.04h-.16v-.432h.152c.656 0 1.048-.4 1.048-.936 0-.488-.408-.856-.928-.856-.528 0-.848.192-.92.56l-.52-.008c.048-.608.64-1.04 1.44-1.04.784 0 1.448.592 1.448 1.28 0 .48-.128.992-.76 1.2v.04c.576.248.88.776.88 1.256 0 .824-.704 1.504-1.568 1.504-.84 0-1.464-.496-1.512-1.184h.496zM32 74.752c0 .72-.616 1.232-1.536 1.288v.472h-.36v-.48c-.808-.072-1.376-.52-1.552-1.232l-.024-.128h.52c.056.496.464.84 1.056.904v-2.064c-.488-.088-.88-.296-1.136-.568-.176-.176-.272-.448-.272-.8 0-.728.536-1.208 1.408-1.256V70.4h.36v.496c.872.064 1.416.512 1.456 1.208h-.504c-.04-.408-.408-.696-.952-.752V73.2c.968.192 1.536.8 1.536 1.552zm-2.8-2.584c0 .464.312.784.904.952v-1.768c-.56.056-.904.36-.904.816zm1.264 3.408c.592-.056 1.04-.408 1.04-.848 0-.496-.384-.912-1.04-1.12v1.968zM32.568 72h.52l1.192 3.152h.032L35.504 72h.52l-1.504 4h-.456l-1.496-4zm5.552 4.096c-.872 0-1.408-.472-1.408-1.248 0-1.104 1.504-1.176 2.488-.992V72.48h-2.088V72h2.592v3.064c0 .384.112.56.4.592V76h-.232a.618.618 0 01-.616-.464h-.032c-.112.32-.664.56-1.104.56zm-.896-1.248c0 1.208 1.976.904 1.976-.112v-.504c-1.224-.192-1.976.032-1.976.616zm3.792-4.544h.528V76h-.528v-5.696zM45.376 76l-.12-.52h-.032c-.08.152-.248.616-1.104.616-.848 0-1.376-.592-1.376-1.56V72h.528v2.216c0 .936.328 1.432.96 1.432.672 0 1.032-.448 1.032-1.272V72h.528v4h-.416zm1.992-1.816c0 .816.6 1.416 1.32 1.416.552 0 .96-.232 1.176-.632l.464.168c-.296.6-.872.96-1.64.96-1.104 0-1.832-.848-1.832-2.12 0-1.24.736-2.072 1.832-2.072 1.088 0 1.816.888 1.832 2.112v.168h-3.152zm1.32-1.784c-.752 0-1.224.496-1.304 1.344h2.624c-.08-.848-.568-1.344-1.32-1.344zm2.88 1.544v-.448h2.088v.448h-2.088zm6.232-2.72c-1.672 1.448-2.168 3.464-2.184 4.776h-.456c.032-1.704.736-3.68 1.848-4.672v-.032h-2.792v-.448H57.8v.376zM32 174.752c0 .72-.616 1.232-1.536 1.288v.472h-.36v-.48c-.808-.072-1.376-.52-1.552-1.232l-.024-.128h.52c.056.496.464.84 1.056.904v-2.064c-.488-.088-.88-.296-1.136-.568-.176-.176-.272-.448-.272-.8 0-.728.536-1.208 1.408-1.256v-.488h.36v.496c.872.064 1.416.512 1.456 1.208h-.504c-.04-.408-.408-.696-.952-.752v1.848c.968.192 1.536.8 1.536 1.552zm-2.8-2.584c0 .464.312.784.904.952v-1.768c-.56.056-.904.36-.904.816zm1.264 3.408c.592-.056 1.04-.408 1.04-.848 0-.496-.384-.912-1.04-1.12v1.968zM32.568 172h.52l1.192 3.152h.032L35.504 172h.52l-1.504 4h-.456l-1.496-4zm5.552 4.096c-.872 0-1.408-.472-1.408-1.248 0-1.104 1.504-1.176 2.488-.992v-1.376h-2.088V172h2.592v3.064c0 .384.112.56.4.592V176h-.232a.618.618 0 01-.616-.464h-.032c-.112.32-.664.56-1.104.56zm-.896-1.248c0 1.208 1.976.904 1.976-.112v-.504c-1.224-.192-1.976.032-1.976.616zm3.792-4.544h.528V176h-.528v-5.696zm4.36 5.696l-.12-.52h-.032c-.08.152-.248.616-1.104.616-.848 0-1.376-.592-1.376-1.56V172h.528v2.216c0 .936.328 1.432.96 1.432.672 0 1.032-.448 1.032-1.272V172h.528v4h-.416zm1.992-1.816c0 .816.6 1.416 1.32 1.416.552 0 .96-.232 1.176-.632l.464.168c-.296.6-.872.96-1.64.96-1.104 0-1.832-.848-1.832-2.12 0-1.24.736-2.072 1.832-2.072 1.088 0 1.816.888 1.832 2.112v.168h-3.152zm1.32-1.784c-.752 0-1.224.496-1.304 1.344h2.624c-.08-.848-.568-1.344-1.32-1.344zm2.88 1.544v-.448h2.088v.448h-2.088zm4.952 0c-.448.352-1.376.888-1.312 1.576h2.48v.48H54.64v-.312c0-.736.464-1.24 1.312-1.904.624-.488 1.248-.792 1.248-1.528 0-.584-.376-.96-.944-.96-.576 0-1.032.44-1.08 1h-.528c.048-.656.56-1.496 1.6-1.496.912 0 1.48.544 1.48 1.416 0 1.008-.64 1.28-1.208 1.728zM32 94.752c0 .72-.616 1.232-1.536 1.288v.472h-.36v-.48c-.808-.072-1.376-.52-1.552-1.232l-.024-.128h.52c.056.496.464.84 1.056.904v-2.064c-.488-.088-.88-.296-1.136-.568-.176-.176-.272-.448-.272-.8 0-.728.536-1.208 1.408-1.256V90.4h.36v.496c.872.064 1.416.512 1.456 1.208h-.504c-.04-.408-.408-.696-.952-.752V93.2c.968.192 1.536.8 1.536 1.552zm-2.8-2.584c0 .464.312.784.904.952v-1.768c-.56.056-.904.36-.904.816zm1.264 3.408c.592-.056 1.04-.408 1.04-.848 0-.496-.384-.912-1.04-1.12v1.968zM32.568 92h.52l1.192 3.152h.032L35.504 92h.52l-1.504 4h-.456l-1.496-4zm5.552 4.096c-.872 0-1.408-.472-1.408-1.248 0-1.104 1.504-1.176 2.488-.992V92.48h-2.088V92h2.592v3.064c0 .384.112.56.4.592V96h-.232a.618.618 0 01-.616-.464h-.032c-.112.32-.664.56-1.104.56zm-.896-1.248c0 1.208 1.976.904 1.976-.112v-.504c-1.224-.192-1.976.032-1.976.616zm3.792-4.544h.528V96h-.528v-5.696zM45.376 96l-.12-.52h-.032c-.08.152-.248.616-1.104.616-.848 0-1.376-.592-1.376-1.56V92h.528v2.216c0 .936.328 1.432.96 1.432.672 0 1.032-.448 1.032-1.272V92h.528v4h-.416zm1.992-1.816c0 .816.6 1.416 1.32 1.416.552 0 .96-.232 1.176-.632l.464.168c-.296.6-.872.96-1.64.96-1.104 0-1.832-.848-1.832-2.12 0-1.24.736-2.072 1.832-2.072 1.088 0 1.816.888 1.832 2.112v.168h-3.152zm1.32-1.784c-.752 0-1.224.496-1.304 1.344h2.624c-.08-.848-.568-1.344-1.32-1.344zm2.88 1.544v-.448h2.088v.448h-2.088zm5.016 2.136c-1.08 0-1.816-.88-1.816-2.2 0-1.904.824-3.072 2.192-3.072.544 0 .848.128 1.072.256l-.24.424c-.264-.136-.472-.192-.856-.192-.92 0-1.544.88-1.648 2.088.168-.512.816-.776 1.384-.776.928 0 1.648.752 1.648 1.736 0 .96-.776 1.736-1.736 1.736zm0-.44c.704 0 1.296-.592 1.296-1.296 0-.704-.592-1.296-1.296-1.296-.704 0-1.296.592-1.296 1.296 0 .704.592 1.296 1.296 1.296zM32 194.752c0 .72-.616 1.232-1.536 1.288v.472h-.36v-.48c-.808-.072-1.376-.52-1.552-1.232l-.024-.128h.52c.056.496.464.84 1.056.904v-2.064c-.488-.088-.88-.296-1.136-.568-.176-.176-.272-.448-.272-.8 0-.728.536-1.208 1.408-1.256v-.488h.36v.496c.872.064 1.416.512 1.456 1.208h-.504c-.04-.408-.408-.696-.952-.752v1.848c.968.192 1.536.8 1.536 1.552zm-2.8-2.584c0 .464.312.784.904.952v-1.768c-.56.056-.904.36-.904.816zm1.264 3.408c.592-.056 1.04-.408 1.04-.848 0-.496-.384-.912-1.04-1.12v1.968zM32.568 192h.52l1.192 3.152h.032L35.504 192h.52l-1.504 4h-.456l-1.496-4zm5.552 4.096c-.872 0-1.408-.472-1.408-1.248 0-1.104 1.504-1.176 2.488-.992v-1.376h-2.088V192h2.592v3.064c0 .384.112.56.4.592V196h-.232a.618.618 0 01-.616-.464h-.032c-.112.32-.664.56-1.104.56zm-.896-1.248c0 1.208 1.976.904 1.976-.112v-.504c-1.224-.192-1.976.032-1.976.616zm3.792-4.544h.528V196h-.528v-5.696zm4.36 5.696l-.12-.52h-.032c-.08.152-.248.616-1.104.616-.848 0-1.376-.592-1.376-1.56V192h.528v2.216c0 .936.328 1.432.96 1.432.672 0 1.032-.448 1.032-1.272V192h.528v4h-.416zm1.992-1.816c0 .816.6 1.416 1.32 1.416.552 0 .96-.232 1.176-.632l.464.168c-.296.6-.872.96-1.64.96-1.104 0-1.832-.848-1.832-2.12 0-1.24.736-2.072 1.832-2.072 1.088 0 1.816.888 1.832 2.112v.168h-3.152zm1.32-1.784c-.752 0-1.224.496-1.304 1.344h2.624c-.08-.848-.568-1.344-1.32-1.344zm2.88 1.544v-.448h2.088v.448h-2.088zm3.792-1.688h-1.008v-.368h.296a.692.692 0 00.712-.704v-.336h.488V196h-.488v-3.744zM32 214.752c0 .72-.616 1.232-1.536 1.288v.472h-.36v-.48c-.808-.072-1.376-.52-1.552-1.232l-.024-.128h.52c.056.496.464.84 1.056.904v-2.064c-.488-.088-.88-.296-1.136-.568-.176-.176-.272-.448-.272-.8 0-.728.536-1.208 1.408-1.256v-.488h.36v.496c.872.064 1.416.512 1.456 1.208h-.504c-.04-.408-.408-.696-.952-.752v1.848c.968.192 1.536.8 1.536 1.552zm-2.8-2.584c0 .464.312.784.904.952v-1.768c-.56.056-.904.36-.904.816zm1.264 3.408c.592-.056 1.04-.408 1.04-.848 0-.496-.384-.912-1.04-1.12v1.968zM32.568 212h.52l1.192 3.152h.032L35.504 212h.52l-1.504 4h-.456l-1.496-4zm5.552 4.096c-.872 0-1.408-.472-1.408-1.248 0-1.104 1.504-1.176 2.488-.992v-1.376h-2.088V212h2.592v3.064c0 .384.112.56.4.592V216h-.232a.618.618 0 01-.616-.464h-.032c-.112.32-.664.56-1.104.56zm-.896-1.248c0 1.208 1.976.904 1.976-.112v-.504c-1.224-.192-1.976.032-1.976.616zm3.792-4.544h.528V216h-.528v-5.696zm4.36 5.696l-.12-.52h-.032c-.08.152-.248.616-1.104.616-.848 0-1.376-.592-1.376-1.56V212h.528v2.216c0 .936.328 1.432.96 1.432.672 0 1.032-.448 1.032-1.272V212h.528v4h-.416zm1.992-1.816c0 .816.6 1.416 1.32 1.416.552 0 .96-.232 1.176-.632l.464.168c-.296.6-.872.96-1.64.96-1.104 0-1.832-.848-1.832-2.12 0-1.24.736-2.072 1.832-2.072 1.088 0 1.816.888 1.832 2.112v.168h-3.152zm1.32-1.784c-.752 0-1.224.496-1.304 1.344h2.624c-.08-.848-.568-1.344-1.32-1.344zm2.88 1.544v-.448h2.088v.448h-2.088zm5.296-3.144c1.192 0 2.016 1.096 2.016 2.672 0 1.568-.8 2.608-2.016 2.608-1.232 0-2.088-1.064-2.088-2.608 0-1.552.872-2.672 2.088-2.672zm0 .48c-.92 0-1.624.96-1.624 2.192 0 1.232.68 2.144 1.624 2.144.928 0 1.544-.88 1.544-2.144 0-1.264-.64-2.192-1.544-2.192z"/></g></svg>