<svg xmlns="http://www.w3.org/2000/svg" viewBox="0 0 265.78 268.55" data-name="example-system"><path class="fill-hue-10" d="M10.2 163.52l-.08-20.13c0-6.32 3.59-12.51 10.28-18.11l.08 20.12c-6.69 5.6-10.3 11.79-10.28 18.12z"/><path class="fill-hue-10" d="M11.41 123.55l9 1.73c-7.7 6.44-11.32 13.66-10 21l-10 .32c-1.41-8.05 2.59-15.98 11-23.05z"/><path class="fill-hue-9" d="M19.4 168.65l.08 20.13A51.91 51.91 0 016.15 178a24.16 24.16 0 01-5.66-11.29l-.08-20.13a24.22 24.22 0 005.65 11.27 52 52 0 0013.34 10.8z"/><path class="fill-hue-9" d="M.41 146.58l10-.32a21.8 21.8 0 005.12 10.22 47.51 47.51 0 0012.17 9.88l-8.27 2.29a52 52 0 01-13.34-10.8 24.22 24.22 0 01-5.68-11.27z"/><path class="fill-hue-12" d="M104.78 101.85l.08 20.12a241.2 241.2 0 00-25.42 2.17 191.24 191.24 0 00-24.46 5L54.9 109a191.24 191.24 0 0124.46-5 238.34 238.34 0 0125.42-2.15z"/><path class="fill-hue-12--dark" d="M76.15 100.2a261.53 261.53 0 0127.92-2.38l.71 4A238.34 238.34 0 0079.36 104a191.24 191.24 0 00-24.46 5l-5.61-3.33a209.68 209.68 0 0126.86-5.47z"/><path class="fill-hue-11" d="M54.9 109l.1 20.14c-15 4.17-26.79 9.82-34.5 16.26l-.08-20.12c7.69-6.44 19.47-12.1 34.48-16.28z"/><path class="fill-hue-11--dark" d="M49.29 105.69L54.9 109c-15 4.16-26.79 9.82-34.5 16.26l-9-1.73c8.47-7.06 21.41-13.26 37.89-17.84z"/><path class="fill-hue-3" d="M213.87 139.64l.08 20.12a21.93 21.93 0 00-5.15-10.27 47.16 47.16 0 00-12.14-9.83l-.09-20.13a47.07 47.07 0 0112.15 9.84 22 22 0 015.15 10.27z"/><path class="fill-hue-3--dark" d="M204.86 117.24A51.68 51.68 0 01218.19 128a24.19 24.19 0 015.66 11.27l-10 .33a22 22 0 00-5.15-10.27 47.07 47.07 0 00-12.15-9.84z"/><path class="fill-hue-2" d="M196.57 119.53l.09 20.13c-10.18-6-24.07-10.76-40-13.82l-.08-20.12c15.92 3.06 29.81 7.78 39.99 13.81z"/><path class="fill-hue-2--dark" d="M161 102.07c17.43 3.36 32.69 8.54 43.87 15.17l-8.29 2.29c-10.18-6-24.07-10.75-39.95-13.81z"/><path class="fill-hue-1" d="M156.62 105.72l.08 20.12a237.11 237.11 0 00-51.84-3.84l-.08-20.12a237.11 237.11 0 0151.84 3.84z"/><path class="fill-hue-1--dark" d="M104.07 97.82a260.21 260.21 0 0156.93 4.25l-4.37 3.65a237.11 237.11 0 00-51.84-3.87z"/><g><path class="fill-value-0" d="M112.11 243l-3.41.94-1 .28-3 .83-4.14 1.15-7.46 2.07.09 20.12 7.46-2.07 4-1.12 4-1.11 3.49-1z"/><path class="fill-value-0" d="M90.32 246a5 5 0 01-1.16-2.27v20.11a5.56 5.56 0 003.36 4.16l.67.37-.09-20.12a10.75 10.75 0 01-2.78-2.25z"/><path class="fill-value-1" d="M112.11 223l-3.41.94-1 .28-3 .83-4.14 1.15-7.46 2.07.09 20.12 7.46-2.07 4-1.12 4-1.11 3.49-1z"/><path class="fill-value-1" d="M90.32 226a5 5 0 01-1.16-2.27v20.11a5.56 5.56 0 003.36 4.16l.67.37-.09-20.12a10.75 10.75 0 01-2.78-2.25z"/><path class="fill-value-2" d="M112.11 203l-3.41.94-1 .28-3 .83-4.14 1.15-7.46 2.07.09 20.12 7.46-2.07 4-1.12 4-1.11 3.49-1z"/><path class="fill-value-2" d="M90.32 206a5 5 0 01-1.16-2.27v20.11a5.56 5.56 0 003.36 4.16l.67.37-.09-20.12a10.75 10.75 0 01-2.78-2.25z"/><path class="fill-value-3" d="M112.11 183l-3.41.94-1 .28-3 .83-4.14 1.15-7.46 2.07.09 20.12 7.46-2.07 4-1.12 4-1.11 3.49-1z"/><path class="fill-value-3" d="M90.32 186a5 5 0 01-1.16-2.27v20.11a5.56 5.56 0 003.36 4.16l.67.37-.09-20.12a10.75 10.75 0 01-2.78-2.25z"/><path class="fill-value-4" d="M112.11 163l-3.41.94-1 .28-3 .83-4.14 1.15-7.46 2.07.09 20.12 7.46-2.07 4-1.12 4-1.11 3.49-1z"/><path class="fill-value-4" d="M90.32 166a5 5 0 01-1.16-2.27v20.11a5.56 5.56 0 003.36 4.16l.67.37-.09-20.12a10.75 10.75 0 01-2.78-2.25z"/><path class="fill-value-5" d="M112.11 143l-3.41.94-1 .28-3 .83-4.14 1.15-7.46 2.07.09 20.12 7.46-2.07 4-1.12 4-1.11 3.49-1z"/><path class="fill-value-5" d="M90.32 146a5 5 0 01-1.16-2.27v20.11a5.56 5.56 0 003.36 4.16l.67.37-.09-20.12a10.75 10.75 0 01-2.78-2.25z"/><path class="fill-value-6" d="M112.11 123l-3.41.94-1 .28-3 .83-4.14 1.15-7.46 2.07.09 20.12 7.46-2.07 4-1.12 4-1.11 3.49-1z"/><path class="fill-value-6" d="M90.32 126a5 5 0 01-1.16-2.27v20.11a5.56 5.56 0 003.36 4.16l.67.37-.09-20.12a10.75 10.75 0 01-2.78-2.25z"/><path class="fill-value-7" d="M112.11 103l-3.41.94-1 .28-3 .83-4.14 1.15-7.46 2.07.09 20.12 7.46-2.07 4-1.12 4-1.11 3.49-1z"/><path class="fill-value-7" d="M90.32 106a5 5 0 01-1.16-2.27v20.11a5.56 5.56 0 003.36 4.16l.67.37-.09-20.12a10.75 10.75 0 01-2.78-2.25z"/><path class="fill-value-8" d="M112.11 83l-3.41.94-1 .28-3 .83-4.14 1.15-7.46 2.02.09 20.12 7.46-2.07 4-1.12 4-1.11 3.49-1zM90.32 86a5 5 0 01-1.16-2.27v20.11a5.56 5.56 0 003.36 4.16l.67.37-.09-20.15A10.75 10.75 0 0190.32 86z"/><path class="fill-value-9" d="M112.11 63l-3.41.94-1 .28-3 .83-4.14 1.15-7.46 2.02.09 20.12 7.46-2.07 4-1.12 4-1.11 3.49-1zM90.32 66a5 5 0 01-1.16-2.27v20.08A5.56 5.56 0 0092.52 88l.67.37-.09-20.15A10.75 10.75 0 0190.32 66z"/><path class="fill-value-10" d="M112.11 43l-3.41.94-1 .28-3 .83-4.14 1.15-7.46 2.02.09 20.12 7.46-2.07 4-1.12 4-1.11 3.49-1zM90.32 46a5 5 0 01-1.16-2.27v20.08A5.56 5.56 0 0092.52 68l.67.37-.09-20.15A10.75 10.75 0 0190.32 46z"/><path class="fill-value-10" d="M108.7 43.06l-4 .13-6.54.21-9 .3a5 5 0 001.16 2.3 10.75 10.75 0 002.78 2.25L104.7 45l4-1.11 3.41-.94z"/></g><g><polygon class="fill-v5-c4-h9" points="93.11 148.22 84.83 150.51 76.55 152.81 76.63 172.93 84.91 170.64 93.19 168.34 93.11 148.22"/><path class="fill-v5-c4-h9" d="M90.32 146a5 5 0 01-1.16-2.27l-10 .32-10 .33a9.32 9.32 0 002.17 4.28 19.91 19.91 0 005.17 4.18l8.28-2.3 8.27-2.29a10.75 10.75 0 01-2.73-2.25z"/><polygon class="fill-v5-c6-h9" points="76.55 152.81 68.27 155.1 59.99 157.4 60.08 177.52 68.35 175.23 76.63 172.93 76.55 152.81"/><path class="fill-v5-c6-h9" d="M71.38 148.63a9.32 9.32 0 01-2.17-4.28l-10 .32-10 .33a13.6 13.6 0 003.17 6.29A29.41 29.41 0 0060 157.4l8.28-2.3 8.28-2.29a19.91 19.91 0 01-5.18-4.18z"/><polygon class="fill-v5-c8-h9" points="59.99 157.4 51.72 159.69 43.43 161.99 43.51 182.11 51.8 179.82 60.08 177.52 59.99 157.4"/><path class="fill-v5-c8-h9" d="M52.43 151.29a13.6 13.6 0 01-3.17-6.29l-10 .32-10 .33a18.1 18.1 0 004.23 8.35 38.87 38.87 0 009.94 8l8.29-2.3 8.28-2.3a29.41 29.41 0 01-7.57-6.11z"/><polygon class="fill-v5-c10-h9" points="43.43 161.99 35.97 164.06 27.68 166.36 27.77 186.48 36.05 184.18 43.51 182.11 43.43 161.99"/><path class="fill-v5-c10-h9" d="M33.49 154a18.1 18.1 0 01-4.19-8.31l-9 .29-10 .32a22.17 22.17 0 005.17 10.24 47.34 47.34 0 0012.16 9.86l8.29-2.3 7.51-2.1a38.87 38.87 0 01-9.94-8z"/></g><g><path class="fill-hue-8" d="M63.25 183.81l.08 20.13c-17.43-3.36-32.67-8.54-43.85-15.16l-.08-20.13c11.18 6.63 26.42 11.8 43.85 15.16z"/><path class="fill-hue-8--dark" d="M27.67 166.36c10.18 6 24.07 10.74 39.94 13.8l-4.36 3.65c-17.43-3.36-32.67-8.53-43.85-15.16z"/><path class="fill-hue-7" d="M120.14 188.07l.08 20.12a260.6 260.6 0 01-56.89-4.25l-.08-20.13a260.58 260.58 0 0056.89 4.26z"/><path class="fill-hue-7--dark" d="M67.61 180.16a236.91 236.91 0 0051.82 3.84l.71 4a260.58 260.58 0 01-56.89-4.26z"/><path class="fill-hue-6" d="M174.92 180.21l.09 20.12a208.88 208.88 0 01-26.83 5.48 261.61 261.61 0 01-28 2.38l-.08-20.12a261.83 261.83 0 0028-2.38 210.79 210.79 0 0026.82-5.48z"/><path class="fill-hue-6--dark" d="M169.31 176.88l5.61 3.33a210.79 210.79 0 01-26.82 5.48 261.83 261.83 0 01-28 2.38l-.71-4a236.07 236.07 0 0025.46-2.17 190.27 190.27 0 0024.46-5.02z"/><path class="fill-hue-4" d="M224.13 142.44l.09 20.13c0 7-3.95 13.76-11.3 19.91l-.09-20.12c7.36-6.16 11.33-12.96 11.3-19.92z"/><path class="fill-hue-4--dark" d="M213.87 139.64l10-.33c1.43 8-2.56 16-11 23.05l-9-1.74c7.67-6.44 11.3-13.62 10-20.98z"/><path class="fill-hue-5" d="M212.83 162.36l.09 20.12c-8.47 7.07-21.42 13.28-37.91 17.85l-.09-20.12c16.49-4.57 29.45-10.78 37.91-17.85z"/><path class="fill-hue-5--dark" d="M203.84 160.62l9 1.74c-8.46 7.07-21.42 13.28-37.91 17.85l-5.61-3.33c15.01-4.16 26.8-9.81 34.52-16.26z"/></g><g><line fill="transparent" stroke="currentColor" x1="228.83" y1="59.69" x2="228.83" y2="81.22"/><line fill="transparent" stroke="currentColor" x1="228.83" y1="3.02" x2="228.83" y2="54.92"/><path fill="currentColor" d="M228.83 84.25a15.31 15.31 0 00-2.38-4.25l2.38.86 2.39-.86a15.09 15.09 0 00-2.39 4.25zM228.83 0a15 15 0 002.39 4.28l-2.39-.86-2.38.86A15 15 0 00228.83 0z"/><path fill="transparent" stroke="currentColor" d="M231.69 27.64a82.76 82.76 0 0110.73 1M263.06 37.61a7.51 7.51 0 012 4.85c0 8.21-16.21 14.86-36.2 14.86s-36.19-6.65-36.19-14.86c0-7.85 14.79-14.27 33.54-14.83"/><path fill="currentColor" d="M245.41 29.17a15.14 15.14 0 00-4.62 1.65l1.21-2.21-.46-2.49a15 15 0 003.87 3.05zM261.12 35.29A14.74 14.74 0 00265.7 37l-2.38.88-1.27 2.19a15.42 15.42 0 00-.93-4.78z"/><g><line fill="transparent" stroke="currentColor" x1="222.82" y1="44.04" x2="178.96" y2="55.6"/><path fill="currentColor" d="M176 56.37a15.24 15.24 0 003.57-3.37l-.23 2.52 1.44 2.09a15 15 0 00-4.78-1.24zM225.74 43.27a15.24 15.24 0 00-3.53 3.4l.22-2.53-1.43-2.08a15.3 15.3 0 004.74 1.21z"/></g><g fill="currentColor"><path d="M177.41 65.89a4.28 4.28 0 01-1.78.32 3.15 3.15 0 01-3.33-3.43 3.36 3.36 0 013.53-3.55 3.65 3.65 0 011.6.3l-.22.72a3.08 3.08 0 00-1.35-.29 2.52 2.52 0 00-2.64 2.79 2.45 2.45 0 002.59 2.72 3.5 3.5 0 001.43-.28zM178.46 59h.88v3a1.57 1.57 0 01.63-.62 1.71 1.71 0 01.9-.25c.65 0 1.7.4 1.7 2.07v2.9h-.89v-2.79c0-.79-.29-1.44-1.12-1.44a1.27 1.27 0 00-1.18.88 1.07 1.07 0 00-.06.42v2.93h-.88V59zM184 62.76v-1.51h.77v1a1.47 1.47 0 011.36-1.06.93.93 0 01.24 0V62h-.31a1.24 1.24 0 00-1.19 1.12 2.77 2.77 0 000 .42v2.56H184zM189.21 66.21a2.31 2.31 0 01-2.32-2.5 2.37 2.37 0 012.41-2.57 2.29 2.29 0 012.33 2.48 2.37 2.37 0 01-2.4 2.59zm0-.66c.84 0 1.47-.79 1.47-1.9 0-.82-.41-1.85-1.45-1.85s-1.49 1-1.49 1.88c0 1.07.6 1.87 1.46 1.87zM192.74 62.56v-1.31h.78v.78a1.67 1.67 0 011.53-.89 1.43 1.43 0 011.36 1 1.91 1.91 0 01.55-.63 1.67 1.67 0 011.07-.34c.65 0 1.6.42 1.6 2.1v2.83h-.86v-2.75c0-.94-.35-1.49-1-1.49a1.17 1.17 0 00-1.06.79 1.56 1.56 0 00-.07.44v3h-.86v-2.9c0-.78-.34-1.33-1-1.33a1.31 1.31 0 00-1.16 1.31v2.93h-.87v-3.54zM204.52 64.94a8.12 8.12 0 00.07 1.16h-.79l-.08-.61a1.79 1.79 0 01-1.48.72 1.39 1.39 0 01-1.49-1.39c0-1.18 1.05-1.82 2.92-1.81v-.1a1 1 0 00-1.1-1.12 2.33 2.33 0 00-1.27.36l-.21-.59a3.2 3.2 0 011.61-.42c1.49 0 1.85 1 1.85 2v1.82zm-.86-1.32c-1 0-2 .15-2 1.1a.77.77 0 00.82.84 1.22 1.22 0 001.19-.81.9.9 0 000-.28z"/></g><g fill="currentColor"><path d="M204.64 12.09l-2.22-6.76h1l1.06 3.33c.28.91.53 1.75.72 2.53.19-.78.46-1.64.77-2.52l1.14-3.34h.89l-2.42 6.76zM211.78 10.93a8.12 8.12 0 00.07 1.16h-.8l-.08-.61a1.79 1.79 0 01-1.48.72 1.38 1.38 0 01-1.49-1.39c0-1.18 1-1.81 2.89-1.81v-.1a1 1 0 00-1.1-1.12 2.33 2.33 0 00-1.27.36l-.2-.59a3.13 3.13 0 011.6-.42c1.5 0 1.86 1 1.86 2v1.82zm-.87-1.32c-1 0-2 .15-2 1.1a.77.77 0 00.82.84 1.22 1.22 0 001.19-.81.9.9 0 000-.28zM213.19 5h.88v7.12h-.88zM219.6 10.77v1.32h-.79v-.79a1.81 1.81 0 01-1.6.9c-.76 0-1.67-.43-1.67-2.13V7.24h.88v2.67c0 .93.29 1.56 1.08 1.56a1.27 1.27 0 001.16-.81 1.22 1.22 0 00.08-.46v-3h.89v3.53zM221.56 9.81a1.55 1.55 0 001.65 1.69 3.36 3.36 0 001.35-.24l.16.62a4 4 0 01-1.63.31 2.26 2.26 0 01-2.38-2.45A2.36 2.36 0 01223 7.12a2 2 0 012 2.28 2.26 2.26 0 010 .42zm2.58-.63a1.26 1.26 0 00-1.22-1.43 1.45 1.45 0 00-1.35 1.43z"/></g><g fill="currentColor"><path d="M249.89 25.63v2.83h3.27v-2.83h.84v6.76h-.88v-3.17h-3.27v3.17H249v-6.76zM259.59 31.07v1.32h-.79v-.79a1.81 1.81 0 01-1.6.9c-.76 0-1.67-.43-1.67-2.12v-2.84h.88v2.68c0 .92.29 1.55 1.08 1.55a1.27 1.27 0 001.16-.81 1.21 1.21 0 00.08-.45v-3h.89v3.53zM261.55 30.11a1.55 1.55 0 001.65 1.69 3.36 3.36 0 001.35-.24l.16.62a4 4 0 01-1.63.31A2.26 2.26 0 01260.7 30a2.36 2.36 0 012.3-2.58 2 2 0 012 2.28 2.26 2.26 0 010 .42zm2.58-.63a1.26 1.26 0 00-1.22-1.43 1.45 1.45 0 00-1.35 1.43z"/></g></g></svg>